<svg width="281" height="49" viewBox="0 0 281 49" fill="none" xmlns="http://www.w3.org/2000/svg">
<rect x="0.310547" y="0.14502" width="48" height="48" rx="4" fill="#2D2D2D"/>
<path d="M24.6282 16.9533L18.6466 27.3159L24.3105 37.1319L31.8122 24.1385L39.3105 11.145H27.9794L24.6282 16.9533Z" fill="#1697F6"/>
<path d="M16.8123 24.1385L17.2051 24.8218L22.8006 15.1254L25.0997 11.145H24.3106H9.31055L16.8123 24.1385Z" fill="#AEDDFF"/>
<path d="M27.9794 11.145C30.8147 20.4758 24.3105 37.1319 24.3105 37.1319L18.6466 27.3159L27.9794 11.145Z" fill="#1867C0"/>
<path d="M25.0996 11.145C13.1536 11.145 17.2051 24.8218 17.2051 24.8218L25.0996 11.145Z" fill="#7BC6FF"/>
<rect x="58.3105" y="0.14502" width="48" height="48" rx="4" fill="#2D2D2D"/>
<path d="M85.7749 11.145L82.3105 17.146L78.8462 11.145H67.3105L82.3105 37.1265L97.3105 11.145H85.7749Z" fill="#4DBA87"/>
<path d="M85.7749 11.145L82.3105 17.146L78.8462 11.145H73.3115L82.3105 26.7334L91.3096 11.145H85.7749Z" fill="#425466"/>
<rect x="116.311" y="0.14502" width="48" height="48" rx="4" fill="#2D2D2D"/>
<path d="M128.47 40.4649C126.261 40.4649 124.47 38.6741 124.47 36.4649V12.7849C124.47 10.5758 126.261 8.78491 128.47 8.78491H152.15C154.36 8.78491 156.15 10.5758 156.15 12.7849V36.4649C156.15 38.6741 154.36 40.4649 152.15 40.4649H128.47Z" fill="#FFC53D"/>
<path d="M145.184 32.4984C145.793 33.4875 146.454 34.4352 147.856 34.4352C149.034 34.4352 149.652 33.85 149.652 33.0404C149.652 32.0716 149.013 31.7275 147.717 31.1634L147.007 30.8607C144.958 29.9912 143.594 28.9018 143.594 26.6006C143.594 24.4798 145.218 22.8659 147.755 22.8659C149.562 22.8659 150.86 23.4915 151.796 25.1301L149.584 26.5443C149.097 25.6748 148.571 25.3325 147.755 25.3325C146.923 25.3325 146.396 25.8579 146.396 26.5443C146.396 27.3926 146.924 27.7358 148.142 28.2612L148.852 28.5639C151.268 29.5926 152.63 30.6433 152.63 33.0052C152.63 35.5502 150.62 36.945 147.922 36.945C145.283 36.945 143.785 35.6206 142.95 33.9812L145.184 32.4984ZM134.988 32.5705C135.433 33.3678 136.11 33.9812 137.083 33.9812C138.014 33.9812 138.55 33.6133 138.55 32.1833V22.865H141.483V32.6339C141.483 35.5968 139.765 36.945 137.255 36.945C134.987 36.945 133.35 35.4085 132.683 33.9812L134.988 32.5705Z" fill="#000001"/>
<rect x="174.311" y="0.14502" width="48" height="48" rx="4" fill="#2D2D2D"/>
<path d="M209.311 9.74487H187.311C185.101 9.74487 183.311 11.5357 183.311 13.7449V35.7449C183.311 37.954 185.101 39.7449 187.311 39.7449H209.311C211.52 39.7449 213.311 37.954 213.311 35.7449V13.7449C213.311 11.5357 211.52 9.74487 209.311 9.74487Z" fill="#1976D2"/>
<path d="M201.219 23.0784H190.166V25.7984H194.13V38.0784H197.271V25.7984H201.219V23.0784Z" fill="#1F1F1F"/>
<path d="M210.972 26.4814C210.972 26.4814 209.483 25.4881 207.799 25.4881C206.116 25.4881 205.51 26.2881 205.51 27.1431C205.51 29.3497 211.661 29.1289 211.661 33.5697C211.661 40.4106 202.283 37.3764 202.283 37.3764V34.0947C202.283 34.0947 204.076 35.4464 206.227 35.4464C208.378 35.4464 208.296 34.0397 208.296 33.8464C208.296 31.8056 202.2 31.8056 202.2 27.2814C202.2 21.1306 211.082 23.5572 211.082 23.5572L210.972 26.4814Z" fill="#1F1F1F"/>
<rect x="232.311" y="0.14502" width="48" height="48" rx="4" fill="#2D2D2D"/>
<g clip-path="url(#clip0_112185_219850)">
<path d="M251.312 39.145C254.073 39.145 256.312 36.905 256.312 34.145V29.145H251.312C248.553 29.145 246.312 31.385 246.312 34.145C246.312 36.905 248.553 39.145 251.312 39.145Z" fill="#73D13D"/>
<path d="M246.312 24.145C246.312 21.385 248.553 19.145 251.312 19.145H256.312V29.145H251.312C248.553 29.145 246.312 26.905 246.312 24.145Z" fill="#A259FF"/>
<path d="M246.312 14.145C246.312 11.385 248.553 9.14502 251.312 9.14502H256.312V19.145H251.312C248.553 19.145 246.312 16.905 246.312 14.145Z" fill="#FF4D4F"/>
<path d="M256.312 9.14502H261.313C264.073 9.14502 266.313 11.385 266.313 14.145C266.313 16.905 264.073 19.145 261.313 19.145H256.312V9.14502Z" fill="#FF7875"/>
<path d="M266.313 24.145C266.313 26.905 264.073 29.145 261.313 29.145C258.553 29.145 256.312 26.905 256.312 24.145C256.312 21.385 258.553 19.145 261.313 19.145C264.073 19.145 266.313 21.385 266.313 24.145Z" fill="#40A9FF"/>
</g>
<defs>
<clipPath id="clip0_112185_219850">
<rect width="20.004" height="30" fill="white" transform="translate(246.311 9.14502)"/>
</clipPath>
</defs>
</svg>
